<?xml version="1.0" encoding="UTF-8" standalone="no"?>
<!-- Created with Inkscape (http://www.inkscape.org/) -->

<svg
   xmlns:dc="http://purl.org/dc/elements/1.1/"
   xmlns:cc="http://creativecommons.org/ns#"
   xmlns:rdf="http://www.w3.org/1999/02/22-rdf-syntax-ns#"
   xmlns:svg="http://www.w3.org/2000/svg"
   xmlns="http://www.w3.org/2000/svg"
   xmlns:sodipodi="http://sodipodi.sourceforge.net/DTD/sodipodi-0.dtd"
   xmlns:inkscape="http://www.inkscape.org/namespaces/inkscape"
   id="svg2"
   version="1.1"
   inkscape:version="0.48.4 r9939"
   width="199.87213"
   height="15.47625"
   xml:space="preserve"
   sodipodi:docname="copyright.ai.svg"><metadata
     id="metadata8"><rdf:RDF><cc:Work
         rdf:about=""><dc:format>image/svg+xml</dc:format><dc:type
           rdf:resource="http://purl.org/dc/dcmitype/StillImage" /><dc:title></dc:title></cc:Work></rdf:RDF></metadata><defs
     id="defs6"><clipPath
       clipPathUnits="userSpaceOnUse"
       id="clipPath16"><path
         d="M 0,320 855,320 855,0 0,0 0,320 z"
         id="path18"
         inkscape:connector-curvature="0" /></clipPath></defs><sodipodi:namedview
     pagecolor="#ffffff"
     bordercolor="#666666"
     borderopacity="1"
     objecttolerance="10"
     gridtolerance="10"
     guidetolerance="10"
     inkscape:pageopacity="0"
     inkscape:pageshadow="2"
     inkscape:window-width="640"
     inkscape:window-height="480"
     id="namedview4"
     showgrid="false"
     fit-margin-top="0"
     fit-margin-left="0"
     fit-margin-right="0"
     fit-margin-bottom="0"
     inkscape:zoom="1.1415205"
     inkscape:cx="100.76842"
     inkscape:cy="-0.14877761"
     inkscape:window-x="65"
     inkscape:window-y="24"
     inkscape:window-maximized="0"
     inkscape:current-layer="g10" /><g
     id="g10"
     inkscape:groupmode="layer"
     inkscape:label="copyright"
     transform="matrix(1.25,0,0,-1.25,-435.60063,212.91475)"><g
       id="g12"><g
         id="g14"
         clip-path="url(#clipPath16)"><g
           id="g20"
           transform="translate(383.2163,159.2148)"><path
             d="m 0,0 c -2.721,0 -4.927,2.206 -4.927,4.927 0,2.72 2.206,4.927 4.927,4.927 2.721,0 4.927,-2.207 4.927,-4.927 C 4.927,2.206 2.721,0 0,0 m 0,11.117 c -3.419,0 -6.19,-2.771 -6.19,-6.19 0,-3.42 2.771,-6.191 6.19,-6.191 3.419,0 6.19,2.771 6.19,6.191 0,3.419 -2.771,6.19 -6.19,6.19"
             style="fill:#000000;fill-opacity:1;fill-rule:nonzero;stroke:none"
             id="path22"
             inkscape:connector-curvature="0" /></g><g
           id="g24"
           transform="translate(384.9536,163.3828)"><path
             d="m 0,0 c -0.293,-0.668 -0.96,-1.136 -1.737,-1.136 -1.047,0 -1.895,0.848 -1.895,1.895 0,1.047 0.848,1.894 1.895,1.894 0.752,0 1.402,-0.438 1.708,-1.073 l 1.667,0 c -0.368,1.522 -1.74,2.653 -3.375,2.653 -1.919,0 -3.475,-1.556 -3.475,-3.474 0,-1.918 1.556,-3.475 3.475,-3.475 1.658,0 3.044,1.163 3.39,2.716 L 0,0 z"
             style="fill:#000000;fill-opacity:1;fill-rule:nonzero;stroke:none"
             id="path26"
             inkscape:connector-curvature="0" /></g><g
           id="g28"
           transform="translate(348.4805,160.5674)"><path
             d="m 0,0 0,0.389 c 1.173,0.98 2.106,1.9 2.8,2.761 0.693,0.86 1.04,1.58 1.04,2.159 0,0.58 -0.139,0.978 -0.415,1.195 C 3.148,6.721 2.73,6.83 2.17,6.83 1.61,6.83 1.036,6.727 0.45,6.52 L 0.33,6.92 C 0.983,7.152 1.622,7.27 2.245,7.27 2.868,7.27 3.376,7.119 3.77,6.82 4.163,6.52 4.36,6.037 4.36,5.375 4.36,4.711 4.033,3.953 3.38,3.1 2.727,2.246 1.85,1.35 0.75,0.41 l 3.99,0 L 4.74,0 0,0 z"
             style="fill:#000000;fill-opacity:1;fill-rule:nonzero;stroke:none"
             id="path30"
             inkscape:connector-curvature="0" /></g><g
           id="g32"
           transform="translate(356.8203,166.5479)"><path
             d="m 0,0 c -0.347,-0.568 -0.52,-1.367 -0.52,-2.4 0,-1.034 0.173,-1.836 0.52,-2.407 0.347,-0.568 0.829,-0.853 1.445,-0.853 0.617,0 1.095,0.285 1.435,0.853 0.34,0.571 0.51,1.373 0.51,2.407 0,1.033 -0.17,1.832 -0.51,2.4 C 2.54,0.566 2.062,0.85 1.445,0.85 0.829,0.85 0.347,0.566 0,0 m 1.44,-6.102 c -0.74,0 -1.338,0.332 -1.795,0.997 -0.457,0.662 -0.685,1.57 -0.685,2.718 0,1.151 0.218,2.051 0.655,2.701 0.437,0.651 1.045,0.975 1.825,0.975 0.78,0 1.387,-0.324 1.82,-0.975 0.433,-0.65 0.65,-1.55 0.65,-2.701 0,-1.148 -0.226,-2.056 -0.68,-2.718 C 2.777,-5.77 2.18,-6.102 1.44,-6.102"
             style="fill:#000000;fill-opacity:1;fill-rule:nonzero;stroke:none"
             id="path34"
             inkscape:connector-curvature="0" /></g><g
           id="g36"
           transform="translate(364.3901,167.7178)"><path
             d="m 0,0 0,-7.15 -0.48,0 0,6.539 -1.13,-0.6 L -1.78,-0.9 -0.3,0 0,0 z"
             style="fill:#000000;fill-opacity:1;fill-rule:nonzero;stroke:none"
             id="path38"
             inkscape:connector-curvature="0" /></g><g
           id="g40"
           transform="translate(370.3901,163.3076)"><path
             d="M 0,0 0,3.629 -2.8,0 0,0 z m 0,-2.74 0,2.299 -3.34,0 0,0.371 3.48,4.539 0.34,0 0,-4.469 1.14,0 0,-0.441 -1.14,0 0,-2.299 -0.48,0 z"
             style="fill:#000000;fill-opacity:1;fill-rule:nonzero;stroke:none"
             id="path42"
             inkscape:connector-curvature="0" /></g><g
           id="g44"
           transform="translate(398.8096,167.7178)"><path
             d="m 0,0 -3.04,-3.461 c 0.406,-0.486 0.875,-1.029 1.405,-1.631 0.53,-0.599 0.873,-0.969 1.03,-1.109 0.156,-0.141 0.28,-0.244 0.37,-0.315 0.09,-0.07 0.228,-0.146 0.415,-0.23 0.186,-0.084 0.386,-0.139 0.6,-0.164 L 0.77,-7.23 c -0.4,0.005 -0.73,0.068 -0.99,0.185 -0.26,0.115 -0.487,0.27 -0.68,0.459 -0.194,0.19 -0.615,0.656 -1.265,1.4 -0.65,0.743 -1.139,1.311 -1.465,1.706 L -0.56,0 0,0 z m -3.82,-7.15 -0.48,0 0,7.15 0.48,0 0,-7.15 z"
             style="fill:#000000;fill-opacity:1;fill-rule:nonzero;stroke:none"
             id="path46"
             inkscape:connector-curvature="0" /></g><g
           id="g48"
           transform="translate(403.7192,160.5674)"><path
             d="m 0,0 -0.48,0 0,2.559 -2.69,4.591 0.58,0 2.08,-3.621 c 0.12,-0.213 0.22,-0.4 0.3,-0.56 0.026,0.088 0.12,0.267 0.28,0.541 L 2.15,7.15 2.7,7.15 0,2.539 0,0 z"
             style="fill:#000000;fill-opacity:1;fill-rule:nonzero;stroke:none"
             id="path50"
             inkscape:connector-curvature="0" /></g><g
           id="g52"
           transform="translate(410.2192,167.2979)"><path
             d="m 0,0 -2.42,0 0,0.42 5.32,0 L 2.9,0 0.48,0 0.48,-6.73 0,-6.73 0,0 z"
             style="fill:#000000;fill-opacity:1;fill-rule:nonzero;stroke:none"
             id="path54"
             inkscape:connector-curvature="0" /></g><g
           id="g56"
           transform="translate(416.229,166.4619)"><path
             d="m 0,0 c -0.553,-0.623 -0.83,-1.395 -0.83,-2.314 0,-0.92 0.278,-1.694 0.835,-2.321 0.557,-0.627 1.277,-0.939 2.16,-0.939 0.883,0 1.603,0.312 2.16,0.939 0.556,0.627 0.835,1.401 0.835,2.321 C 5.16,-1.395 4.881,-0.623 4.325,0 3.768,0.623 3.046,0.936 2.16,0.936 1.273,0.936 0.553,0.623 0,0 m -0.355,-4.945 c -0.664,0.713 -0.995,1.59 -0.995,2.631 0,1.039 0.331,1.914 0.995,2.625 0.663,0.709 1.501,1.064 2.515,1.064 1.013,0 1.853,-0.355 2.52,-1.064 0.667,-0.711 1,-1.586 1,-2.625 0,-1.041 -0.333,-1.918 -1,-2.631 -0.667,-0.713 -1.507,-1.071 -2.52,-1.071 -1.014,0 -1.852,0.358 -2.515,1.071"
             style="fill:#000000;fill-opacity:1;fill-rule:nonzero;stroke:none"
             id="path58"
             inkscape:connector-curvature="0" /></g><g
           id="g60"
           transform="translate(425.5889,166.5771)"><path
             d="m 0,0 0.02,-0.85 0,-5.16 -0.48,0 0,7.209 0.22,0 4.711,-5.429 C 4.79,-4.609 5.037,-4.914 5.211,-5.141 5.184,-4.82 5.17,-4.453 5.17,-4.041 l 0,5.182 0.48,0 0,-7.211 -0.22,0 -4.8,5.529 C 0.297,-0.16 0.083,0.094 -0.01,0.221 L 0,0 z"
             style="fill:#000000;fill-opacity:1;fill-rule:nonzero;stroke:none"
             id="path62"
             inkscape:connector-curvature="0" /></g><g
           id="g64"
           transform="translate(434.8789,160.5674)"><path
             d="m 0,0 0,7.15 3.32,0 0,-0.42 -2.841,0 0,-2.63 2.571,0 0,-0.411 -2.571,0 0,-3.269 2.952,0 L 3.431,0 0,0 z"
             style="fill:#000000;fill-opacity:1;fill-rule:nonzero;stroke:none"
             id="path66"
             inkscape:connector-curvature="0" /></g><g
           id="g68"
           transform="translate(446.2881,166.5771)"><path
             d="m 0,0 0.021,-0.85 0,-5.16 -0.48,0 0,7.209 0.22,0 4.71,-5.429 c 0.32,-0.379 0.566,-0.684 0.74,-0.911 -0.027,0.321 -0.04,0.688 -0.04,1.1 l 0,5.182 0.479,0 0,-7.211 -0.219,0 -4.8,5.529 C 0.297,-0.16 0.084,0.094 -0.01,0.221 L 0,0 z"
             style="fill:#000000;fill-opacity:1;fill-rule:nonzero;stroke:none"
             id="path70"
             inkscape:connector-curvature="0" /></g><g
           id="g72"
           transform="translate(455.5791,160.5674)"><path
             d="m 0,0 0,7.15 3.32,0 0,-0.42 -2.841,0 0,-2.63 2.571,0 0,-0.411 -2.571,0 0,-3.269 2.951,0 L 3.43,0 0,0 z"
             style="fill:#000000;fill-opacity:1;fill-rule:nonzero;stroke:none"
             id="path74"
             inkscape:connector-curvature="0" /></g><g
           id="g76"
           transform="translate(463.249,167.2979)"><path
             d="m 0,0 -2.42,0 0,0.42 5.319,0 0,-0.42 -2.42,0 0,-6.73 L 0,-6.73 0,0 z"
             style="fill:#000000;fill-opacity:1;fill-rule:nonzero;stroke:none"
             id="path78"
             inkscape:connector-curvature="0" /></g><g
           id="g80"
           transform="translate(475.2588,163.8467)"><path
             d="m 0,0 c 0.293,0 0.605,0.193 0.939,0.58 0.334,0.387 0.5,0.836 0.5,1.346 0,0.51 -0.171,0.896 -0.515,1.16 C 0.581,3.348 0.126,3.48 -0.44,3.48 c -0.3,0 -0.65,-0.013 -1.05,-0.041 l 0,-3.388 C -0.957,0.018 -0.461,0 0,0 m -1.971,-3.279 0,7.119 c 0.633,0.047 1.164,0.07 1.59,0.07 0.68,0 1.24,-0.176 1.68,-0.525 C 1.739,3.035 1.959,2.541 1.959,1.9 1.959,1.467 1.832,1.064 1.58,0.689 1.326,0.316 1.043,0.02 0.729,-0.199 0.977,-0.539 1.281,-0.945 1.645,-1.414 2.008,-1.885 2.242,-2.18 2.35,-2.299 2.756,-2.732 3.216,-2.98 3.729,-3.039 l -0.01,-0.32 c -0.406,0.005 -0.737,0.068 -0.99,0.185 -0.252,0.115 -0.495,0.295 -0.725,0.533 -0.23,0.241 -0.801,0.989 -1.715,2.241 -0.652,0 -1.246,0.021 -1.779,0.06 l 0,-2.939 -0.481,0 z"
             style="fill:#000000;fill-opacity:1;fill-rule:nonzero;stroke:none"
             id="path82"
             inkscape:connector-curvature="0" /></g><g
           id="g84"
           transform="translate(482.8281,166.9678)"><path
             d="M 0,0 C -0.007,-0.008 -0.021,-0.047 -0.04,-0.121 -0.134,-0.408 -0.224,-0.65 -0.31,-0.852 l -1.099,-2.66 2.859,0 -1.099,2.651 C 0.116,-0.354 0,-0.068 0,0 m -1.579,-3.92 -1.031,-2.48 -0.51,0 3.01,7.199 0.281,0 3.019,-7.199 -0.54,0 -1.03,2.48 -3.199,0 z"
             style="fill:#000000;fill-opacity:1;fill-rule:nonzero;stroke:none"
             id="path86"
             inkscape:connector-curvature="0" /></g><g
           id="g88"
           transform="translate(490.7881,160.917)"><path
             d="M 0,0 C 0.939,0 1.695,0.256 2.266,0.766 2.835,1.275 3.12,2.043 3.12,3.07 3.12,4.096 2.799,4.914 2.155,5.52 1.512,6.127 0.717,6.43 -0.23,6.43 -0.836,6.43 -1.363,6.414 -1.811,6.381 l 0,-6.301 C -1.377,0.027 -0.773,0 0,0 m -0.23,6.869 c 1.1,0 2.02,-0.342 2.76,-1.023 C 3.27,5.162 3.641,4.232 3.641,3.061 3.641,2.467 3.545,1.941 3.355,1.484 3.165,1.027 2.903,0.664 2.57,0.391 1.883,-0.164 1.027,-0.439 0,-0.439 c -0.674,0 -1.437,0.035 -2.29,0.109 l 0,7.131 c 0.681,0.045 1.366,0.068 2.06,0.068"
             style="fill:#000000;fill-opacity:1;fill-rule:nonzero;stroke:none"
             id="path90"
             inkscape:connector-curvature="0" /></g><path
           d="m 497.647,167.718 0.48,0 0,-7.15 -0.48,0 0,7.15 z"
           style="fill:#000000;fill-opacity:1;fill-rule:nonzero;stroke:none"
           id="path92"
           inkscape:connector-curvature="0" /><g
           id="g94"
           transform="translate(502.6982,166.4619)"><path
             d="m 0,0 c -0.553,-0.623 -0.83,-1.395 -0.83,-2.314 0,-0.92 0.278,-1.694 0.835,-2.321 0.557,-0.627 1.276,-0.939 2.16,-0.939 0.884,0 1.603,0.312 2.16,0.939 0.556,0.627 0.835,1.401 0.835,2.321 C 5.16,-1.395 4.881,-0.623 4.325,0 3.768,0.623 3.047,0.936 2.16,0.936 1.273,0.936 0.553,0.623 0,0 m -0.355,-4.945 c -0.664,0.713 -0.995,1.59 -0.995,2.631 0,1.039 0.331,1.914 0.995,2.625 0.664,0.709 1.501,1.064 2.515,1.064 1.014,0 1.854,-0.355 2.52,-1.064 0.667,-0.711 1,-1.586 1,-2.625 0,-1.041 -0.333,-1.918 -1,-2.631 -0.666,-0.713 -1.506,-1.071 -2.52,-1.071 -1.014,0 -1.851,0.358 -2.515,1.071"
             style="fill:#000000;fill-opacity:1;fill-rule:nonzero;stroke:none"
             id="path96"
             inkscape:connector-curvature="0" /></g></g></g></g></svg>